<?xml version="1.0" encoding="utf-8"?>
<!-- Generator: Adobe Illustrator 25.0.0, SVG Export Plug-In . SVG Version: 6.00 Build 0)  -->
<svg version="1.1" id="Capa_1" xmlns="http://www.w3.org/2000/svg" xmlns:xlink="http://www.w3.org/1999/xlink" x="0px" y="0px"
	 viewBox="0 0 29 30" style="enable-background:new 0 0 29 30;" xml:space="preserve">
<style type="text/css">
	.st0{fill:#FFFFFF;stroke:#008388;stroke-width:1.8;stroke-miterlimit:10;}
	.st1{fill:none;stroke:#008388;stroke-width:1.8;stroke-miterlimit:10;}
	.st2{fill:none;stroke:#61BAA1;stroke-width:1.8;stroke-miterlimit:10;}
</style>
<circle class="st0" cx="14.31" cy="14.87" r="12.7"/>
<path class="st0" d="M14.26,2.35c3.51,0,6.4,5.34,6.4,12.35s-2.84,12.7-6.35,12.7s-6.35-5.69-6.35-12.7S10.75,2.35,14.26,2.35z"/>
<path class="st1" d="M1.79,15.74c0-3.51,5.34-6.4,12.35-6.4s12.7,2.84,12.7,6.35s-5.69,6.35-12.7,6.35S1.79,19.25,1.79,15.74z"/>
<path class="st0" d="M14.26,9.34c3.51,0,6.4,2.71,6.4,6.26s-2.84,6.44-6.35,6.44s-6.35-2.88-6.35-6.44S10.75,9.34,14.26,9.34z"/>
<path class="st2" d="M14.38,9.77"/>
<path class="st2" d="M14.38,16.29"/>
<path class="st2" d="M20.08,16.29"/>
<path class="st2" d="M15.19,15.47"/>
</svg>
